# xmcd
# 
# Track frame offsets:
#     150
#     21797
#     41735
#     58927
#     80927
#     100710
#     118047
#     135785
#     158147
#     173230
#     191972
#     211167
# 
# Disc length: 3093
# 
# Revision: 2
# Processed by: cddbd v1.5.2PL0 Copyright (c) Steve Scherf et al.
# Submitted via: BonkEnc v1.0
# 
DISCID=a40c130c
DTITLE=Colin James - Fuse
DYEAR=2000
DGENRE=blues
TTITLE0=Hide
TTITLE1=Mystery to Me
TTITLE2=Stop Bringing it Down On A Perfect Day
TTITLE3=Get Carried Away
TTITLE4=Getting Higher
TTITLE5=Something Good
TTITLE6=It Ain't Over Yet
TTITLE7=Hate It When I See You Cry
TTITLE8=Get To The Bottom
TTITLE9=Of All The Things To Throw Away
TTITLE10=Going's Good
TTITLE11=Big Bad World
EXTD=
EXTT0=
EXTT1=
EXTT2=
EXTT3=
EXTT4=
EXTT5=
EXTT6=
EXTT7=
EXTT8=
EXTT9=
EXTT10=
EXTT11=
PLAYORDER=
